<svg width="24" height="17" viewBox="0 0 24 17" fill="none" xmlns="http://www.w3.org/2000/svg">
<path d="M20.8 17C20.5792 17 20.4 16.8269 20.4 16.6136V6.56817C20.4 6.3549 20.5792 6.18181 20.8 6.18181C21.0208 6.18181 21.2 6.3549 21.2 6.56817V16.6136C21.2 16.8269 21.0208 17 20.8 17Z" fill="#263238"/>
<path d="M3.2 17C2.9792 17 2.8 16.8269 2.8 16.6136V6.56817C2.8 6.3549 2.9792 6.18181 3.2 6.18181C3.4208 6.18181 3.6 6.3549 3.6 6.56817V16.6136C3.6 16.8269 3.4208 17 3.2 17Z" fill="#263238"/>
<path d="M12 7.28837C11.9208 7.28837 11.8424 7.26596 11.7744 7.22114L2.0424 0.788956C1.86 0.668411 1.8136 0.428093 1.9384 0.251911C2.0632 0.0757293 2.3112 0.0301383 2.4944 0.151457L12 6.43373L19.1664 1.69768C19.3496 1.57714 19.5984 1.62273 19.7224 1.79814C19.8472 1.97432 19.8008 2.21464 19.6184 2.33518L12.2264 7.22037C12.1576 7.26596 12.0792 7.28837 12 7.28837Z" fill="#263238"/>
<path d="M22 17H2C0.8976 17 0 16.133 0 15.0682V1.93182C0 1.71855 0.1792 1.54545 0.4 1.54545C0.6208 1.54545 0.8 1.71855 0.8 1.93182V15.0682C0.8 15.7072 1.3384 16.2273 2 16.2273H22C22.6616 16.2273 23.2 15.7072 23.2 15.0682V1.93182C23.2 1.29277 22.6616 0.772727 22 0.772727C21.7792 0.772727 21.6 0.599636 21.6 0.386364C21.6 0.173091 21.7792 0 22 0C23.1024 0 24 0.867 24 1.93182V15.0682C24 16.133 23.1024 17 22 17Z" fill="#263238"/>
<path d="M12 10.8182C11.9208 10.8182 11.8416 10.7958 11.7728 10.7502L0.8528 3.47573C0.3184 3.12027 0 2.533 0 1.90632C0 0.855409 0.8856 0 1.9736 0H22.0256C23.1144 0 24 0.855409 24 1.90632C24 2.533 23.6816 3.1195 23.1472 3.47573L12.2272 10.7502C12.1584 10.7958 12.0792 10.8182 12 10.8182ZM1.9736 0.772727C1.3264 0.772727 0.8 1.28118 0.8 1.90632C0.8 2.27955 0.9896 2.62805 1.3072 2.83977L12 9.96277L22.6928 2.83977C23.0104 2.62805 23.2 2.27955 23.2 1.90632C23.2 1.28118 22.6736 0.772727 22.0264 0.772727H1.9736Z" fill="#263238"/>
</svg>
