<svg width="22" height="22" viewBox="0 0 22 22" fill="none" xmlns="http://www.w3.org/2000/svg">
<path d="M17.2816 7.85168L20.0582 11.6205H14.5561L17.2816 7.85168Z" fill="#FFC035"/>
<path d="M17.2816 7.85168L14.5561 11.6205L11 7.85168H17.2816Z" fill="#C98B0E"/>
<path d="M11 7.85168L14.5561 11.6205H7.44391L11 7.85168Z" fill="#FFC035"/>
<path d="M11 7.85168L7.44391 11.6205L4.7184 7.85168H11Z" fill="#C98B0E"/>
<path d="M4.7184 7.85168L7.4439 11.6205H1.94218L4.7184 7.85168Z" fill="#FFC035"/>
<path d="M11 20.6194L1.94218 11.6205H7.4439L11 20.6194Z" fill="#C98B0E"/>
<path d="M14.5561 11.6205L11 20.6194L7.44391 11.6205H14.5561Z" fill="#FFC035"/>
<path d="M20.0582 11.6205L11 20.6194L14.5561 11.6205H20.0582Z" fill="#C98B0E"/>
<path d="M10.9725 3.98621C10.8776 3.98621 10.8006 3.90925 10.8006 3.81433V1.38058C10.8006 1.28567 10.8776 1.20871 10.9725 1.20871C11.0674 1.20871 11.1444 1.28567 11.1444 1.38058V3.81433C11.1443 3.90925 11.0674 3.98621 10.9725 3.98621Z" fill="#FFC035"/>
<path d="M8.66159 4.43528C8.5885 4.43528 8.52078 4.38831 8.49767 4.31492L7.77837 2.02813C7.74988 1.93759 7.8002 1.84108 7.89078 1.81259C7.98131 1.78411 8.07782 1.83442 8.10631 1.925L8.8256 4.2118C8.85409 4.30233 8.80378 4.39884 8.7132 4.42733C8.69605 4.43274 8.67869 4.43528 8.66159 4.43528Z" fill="#FFC035"/>
<path d="M6.62338 5.77155C6.57018 5.77155 6.51772 5.74693 6.48407 5.70057L5.13228 3.83615C5.07655 3.75928 5.09369 3.65182 5.17052 3.59613C5.24735 3.5404 5.35485 3.55754 5.41054 3.63437L6.76234 5.49878C6.81807 5.57566 6.80093 5.68312 6.7241 5.73881C6.69363 5.76089 6.65835 5.77155 6.62338 5.77155Z" fill="#FFC035"/>
<path d="M13.2284 4.43527C13.2113 4.43527 13.1939 4.4327 13.1768 4.42733C13.0863 4.39884 13.0359 4.30233 13.0644 4.21179L13.7837 1.925C13.8122 1.83446 13.9086 1.7841 13.9992 1.81259C14.0898 1.84108 14.1401 1.93759 14.1116 2.02812L13.3923 4.31492C13.3692 4.38831 13.3015 4.43527 13.2284 4.43527Z" fill="#FFC035"/>
<path d="M15.2667 5.77155C15.2317 5.77155 15.1964 5.76089 15.1659 5.73876C15.089 5.68303 15.0719 5.57557 15.1276 5.49874L16.4798 3.63432C16.5357 3.55745 16.643 3.54039 16.7199 3.59612C16.7967 3.65186 16.8139 3.75932 16.7582 3.83615L15.4059 5.70056C15.3723 5.74693 15.3198 5.77155 15.2667 5.77155Z" fill="#FFC035"/>
<path opacity="0.2" d="M20.0582 11.6205L11 20.6194L1.94218 11.6205H20.0582Z" fill="url(#paint0_linear_137_1070)"/>
<defs>
<linearGradient id="paint0_linear_137_1070" x1="11.0002" y1="11.6205" x2="11.0002" y2="20.6194" gradientUnits="userSpaceOnUse">
<stop/>
<stop offset="1" stop-color="white" stop-opacity="0"/>
</linearGradient>
</defs>
</svg>
