<svg width="22" height="22" viewBox="0 0 22 22" fill="none" xmlns="http://www.w3.org/2000/svg">
<path d="M7.94444 20.1667C9.63111 20.1667 11 18.7978 11 17.1111V14.0556H7.94444C6.25777 14.0556 4.88889 15.4244 4.88889 17.1111C4.88889 18.7978 6.25777 20.1667 7.94444 20.1667Z" fill="#0ACF83"/>
<path d="M4.88889 11C4.88889 9.31333 6.25777 7.94444 7.94444 7.94444H11V14.0556H7.94444C6.25777 14.0556 4.88889 12.6867 4.88889 11Z" fill="#A259FF"/>
<path d="M4.88889 4.88888C4.88889 3.20222 6.25777 1.83333 7.94444 1.83333H11V7.94444H7.94444C6.25777 7.94444 4.88889 6.57555 4.88889 4.88888Z" fill="#F24E1E"/>
<path d="M11 1.83333H14.0556C15.7422 1.83333 17.1111 3.20222 17.1111 4.88888C17.1111 6.57555 15.7422 7.94444 14.0556 7.94444H11V1.83333Z" fill="#FF7262"/>
<path d="M17.1111 11C17.1111 12.6867 15.7422 14.0556 14.0556 14.0556C12.3689 14.0556 11 12.6867 11 11C11 9.31333 12.3689 7.94444 14.0556 7.94444C15.7422 7.94444 17.1111 9.31333 17.1111 11Z" fill="#1ABCFE"/>
</svg>
