<svg width="25" height="25" viewBox="0 0 25 25" fill="none" xmlns="http://www.w3.org/2000/svg">
<path fill-rule="evenodd" clip-rule="evenodd" d="M4.54409 5.70844L5.99214 21.9503L12.4902 23.7542L19.0063 21.9477L20.456 5.70844H4.54409Z" fill="#E44D26"/>
<path fill-rule="evenodd" clip-rule="evenodd" d="M12.5 9.02847H7.50498L7.55268 9.5629L8.04228 15.0523H12.5V13.0603H9.86406L9.68198 11.0205H12.5V9.02847ZM10.2728 17.637L10.1309 16.0483H8.13125L8.41035 19.1761L12.4908 20.3088L12.5 20.3063V18.2337L12.4913 18.2361L10.2728 17.637Z" fill="#EBEBEB"/>
<path fill-rule="evenodd" clip-rule="evenodd" d="M12.5 7.03644V22.3734L17.7652 20.9137L19.0041 7.03644H12.5Z" fill="#F16529"/>
<path fill-rule="evenodd" clip-rule="evenodd" d="M12.4931 15.0523H14.946L14.7147 17.6358L12.4931 18.2355V20.3078L16.5768 19.176L16.6067 18.8395L17.0749 13.5952L17.1234 13.0603H12.4931V15.0523ZM12.4931 9.02847V11.0205H17.3047L17.3446 10.5728L17.4354 9.5629L17.483 9.02847H12.4931Z" fill="white"/>
<path fill-rule="evenodd" clip-rule="evenodd" d="M7.96284 2.29476H7.03681V1.29462H6.02456V4.32333H7.03686V3.30912H7.96284V4.32333H8.97515V1.29462H7.96279L7.96284 2.29476ZM9.41523 2.29896H10.3064V4.32333H11.3188V2.29896H12.2104V1.29462H9.41523V2.29896ZM14.3589 2.35883L13.7095 1.29462H12.654V4.32333H13.6445V2.82211L14.3414 3.89901H14.3588L15.0553 2.82211V4.32333H16.0634V1.29462H15.0074L14.3589 2.35883ZM17.5799 3.3222V1.29462H16.5673V4.32333H19.0035V3.3222H17.5799Z" fill="black"/>
</svg>
