<svg width="22" height="20" viewBox="0 0 22 20" fill="none" xmlns="http://www.w3.org/2000/svg">
<path d="M21.7716 3.38651L21.6623 3.04052C21.2107 1.61078 19.8054 0.725924 18.3208 0.936342C18.0858 0.969643 17.9223 1.18715 17.9556 1.42215C17.9889 1.65714 18.2062 1.82017 18.4415 1.78725C19.5083 1.63592 20.5183 2.27194 20.8429 3.29937L20.9522 3.64535C21.2768 4.67282 20.8155 5.77359 19.8554 6.26275C19.6439 6.37047 19.5598 6.62919 19.6676 6.84064C19.7753 7.05217 20.0343 7.13617 20.2455 7.02845C21.5814 6.34787 22.2233 4.81616 21.7716 3.38651Z" fill="#5596FB"/>
<path d="M20.4225 6.37395L18.8417 1.37033C18.5154 0.337318 17.4154 -0.234639 16.3821 0.0917516C15.55 0.354591 15.0384 1.10745 15.0127 1.89554L8.22941 4.04337C7.68749 4.21473 7.33574 4.70939 7.31899 5.24774L5.15701 5.93099C4.61513 6.10235 4.26344 6.59709 4.24672 7.1357L2.5018 7.68695C2.27561 7.75841 2.15006 7.99985 2.22156 8.22612L2.88023 10.311C2.95181 10.5377 3.19373 10.6627 3.4194 10.5912L5.1635 10.0402C5.48491 10.4713 6.05618 10.6756 6.60145 10.5031L8.4302 9.92549C8.65652 9.85404 8.78203 9.61264 8.71049 9.38636C8.63899 9.16001 8.39754 9.03436 8.17136 9.10608L6.34248 9.68375C6.10894 9.75749 5.85882 9.62862 5.78461 9.39328C5.78255 9.3868 5.11817 7.2842 5.12552 7.30771C5.05238 7.07413 5.18258 6.82422 5.41607 6.7504L7.50805 6.08929L7.75744 6.87845C8.43725 9.01924 8.39574 8.92462 8.43798 8.9987C8.52903 9.15781 8.71147 9.2413 8.89083 9.20693C9.14954 9.15721 9.29636 8.89609 9.22035 8.65555C9.15715 8.45553 8.22799 5.51535 8.19804 5.42065C8.12431 5.18699 8.25454 4.93665 8.48864 4.86266L15.1658 2.74847L16.6195 7.35008L13.0652 8.47697C12.839 8.54869 12.7138 8.79022 12.7855 9.01645C12.8572 9.24255 13.0985 9.36789 13.3249 9.29617L16.9816 8.13683C17.3488 8.6299 17.9358 8.92565 18.5511 8.92565C19.8876 8.92561 20.819 7.62843 20.4225 6.37395ZM3.57022 9.64237L3.17044 8.37699L4.43578 7.97725C4.95914 9.63374 4.79272 9.10698 4.83556 9.24263L3.57022 9.64237ZM18.885 8.01416C18.3051 8.19729 17.6871 7.87653 17.5037 7.29606L15.9229 2.29244C15.7 1.58663 16.2249 0.859474 16.9739 0.859474C17.4316 0.859474 17.8714 1.15149 18.0223 1.62922L19.603 6.63284C19.7859 7.21163 19.4638 7.83128 18.885 8.01416Z" fill="#283954"/>
<path d="M13.3696 12.7677C13.2556 12.5597 12.9944 12.4835 12.7863 12.5975C12.5782 12.7115 12.502 12.9728 12.6161 13.1809L15.4672 18.3814C15.5845 18.5954 15.5084 18.8662 15.2913 18.9852C15.0725 19.1051 14.8035 19.0222 14.6868 18.8092L12.2612 14.3838V13.6542C12.2612 13.417 12.0688 13.2246 11.8315 13.2246C11.5942 13.2246 11.4018 13.417 11.4018 13.6542C11.4018 14.7045 11.4018 17.6038 11.4018 18.5956C11.4018 18.8409 11.2022 19.0405 10.9569 19.0405C10.7114 19.0405 10.512 18.8412 10.512 18.5956C10.512 17.7391 10.512 14.9129 10.512 13.6542C10.512 13.417 10.3196 13.2246 10.0823 13.2246C9.84504 13.2246 9.65262 13.417 9.65262 13.6542V14.3838L7.22699 18.8092C7.11003 19.0227 6.84079 19.1047 6.62264 18.9853C6.40702 18.8671 6.32834 18.5972 6.44659 18.3814L9.2977 13.1809C9.41178 12.9728 9.3356 12.7115 9.1275 12.5975C8.91932 12.4834 8.6582 12.5596 8.54416 12.7677L5.69297 17.9683C5.34659 18.6004 5.57695 19.3922 6.20979 19.739C6.84693 20.0877 7.63713 19.8488 7.98058 19.2223L9.65258 16.1718V18.5956C9.65258 19.3161 10.2362 19.8998 10.9569 19.8998C11.676 19.8998 12.2611 19.3148 12.2611 18.5956V16.1718L13.9331 19.2223C14.2769 19.8495 15.0676 20.0873 15.7041 19.7389C16.3363 19.3925 16.5674 18.6007 16.2207 17.9683L13.3696 12.7677Z" fill="#283954"/>
<path d="M2.97514 7.75875C2.72214 6.95803 1.86474 6.51236 1.06419 6.7654C0.263557 7.01836 -0.182072 7.87559 0.0708853 8.67631L0.861295 11.1781C1.11468 11.9801 1.97285 12.4241 2.7722 12.1715C3.57292 11.9186 4.0186 11.0613 3.7656 10.2605L2.97514 7.75875ZM2.51331 11.3521C2.16437 11.4621 1.79088 11.2681 1.68067 10.9192L0.890256 8.41746C0.780084 8.06856 0.974217 7.69503 1.32304 7.58482C1.67422 7.47413 2.04607 7.67075 2.15569 8.01764L2.9461 10.5194C3.05631 10.8683 2.86218 11.2418 2.51331 11.3521Z" fill="#5596FB"/>
<path d="M10.9568 7.43404C9.08728 7.43404 7.56627 8.95504 7.56627 10.8246C7.56627 12.6942 9.08728 14.2152 10.9568 14.2152C12.8264 14.2152 14.3474 12.6942 14.3474 10.8246C14.3474 8.95504 12.8264 7.43404 10.9568 7.43404ZM10.9568 13.3558C9.56114 13.3558 8.42564 12.2203 8.42564 10.8246C8.42564 9.4289 9.56114 8.29341 10.9568 8.29341C12.3526 8.29341 13.4881 9.4289 13.4881 10.8246C13.4881 12.2203 12.3526 13.3558 10.9568 13.3558Z" fill="#5596FB"/>
<path d="M10.9568 9.18317C10.0518 9.18317 9.3154 9.91952 9.3154 10.8246C9.3154 11.7297 10.0518 12.4661 10.9568 12.4661C11.8619 12.4661 12.5983 11.7297 12.5983 10.8246C12.5983 9.91952 11.862 9.18317 10.9568 9.18317ZM10.9568 11.6067C10.5256 11.6067 10.1748 11.2558 10.1748 10.8246C10.1748 10.3934 10.5256 10.0425 10.9568 10.0425C11.3881 10.0425 11.7389 10.3934 11.7389 10.8246C11.7389 11.2558 11.3881 11.6067 10.9568 11.6067Z" fill="#5596FB"/>
</svg>
