<svg width="22" height="22" viewBox="0 0 22 22" fill="none" xmlns="http://www.w3.org/2000/svg">
<g clip-path="url(#clip0_137_1200)">
<path d="M10.8911 22C16.9061 22 21.7822 17.0751 21.7822 11C21.7822 4.92487 16.9061 0 10.8911 0C4.87611 0 0 4.92487 0 11C0 17.0751 4.87611 22 10.8911 22Z" fill="#F5EEE5"/>
<mask id="mask0_137_1200" style="mask-type:luminance" maskUnits="userSpaceOnUse" x="0" y="0" width="22" height="22">
<path d="M10.8911 22C16.9061 22 21.7822 17.0751 21.7822 11C21.7822 4.92487 16.9061 0 10.8911 0C4.87611 0 0 4.92487 0 11C0 17.0751 4.87611 22 10.8911 22Z" fill="white"/>
</mask>
<g mask="url(#mask0_137_1200)">
<path d="M14.1584 16.698L20.2356 18.392C20.9327 18.634 21.4772 19.162 21.7822 19.844V22H0V19.844C0.283168 19.162 0.849505 18.634 1.54653 18.392L7.62376 16.698V13.42H14.1584V16.698Z" fill="#D4B08C"/>
</g>
<mask id="mask1_137_1200" style="mask-type:luminance" maskUnits="userSpaceOnUse" x="0" y="0" width="22" height="22">
<path d="M10.8911 22C16.9061 22 21.7822 17.0751 21.7822 11C21.7822 4.92487 16.9061 0 10.8911 0C4.87611 0 0 4.92487 0 11C0 17.0751 4.87611 22 10.8911 22Z" fill="white"/>
</mask>
<g mask="url(#mask1_137_1200)">
<mask id="mask2_137_1200" style="mask-type:luminance" maskUnits="userSpaceOnUse" x="0" y="13" width="22" height="9">
<path d="M14.1584 16.698L20.2356 18.392C20.9327 18.634 21.4772 19.162 21.7822 19.844V22H0V19.844C0.283168 19.162 0.849505 18.634 1.54653 18.392L7.62376 16.698V13.42H14.1584V16.698Z" fill="white"/>
</mask>
<g mask="url(#mask2_137_1200)">
<path d="M10.9347 17.6H9.36634L8.32079 16.5H0V22H10.9347H21.8475V16.5H13.5485L12.503 17.6H10.9347Z" fill="#1E1E23"/>
</g>
<mask id="mask3_137_1200" style="mask-type:luminance" maskUnits="userSpaceOnUse" x="0" y="13" width="22" height="9">
<path d="M14.1584 16.698L20.2356 18.392C20.9327 18.634 21.4772 19.162 21.7822 19.844V22H0V19.844C0.283168 19.162 0.849505 18.634 1.54653 18.392L7.62376 16.698V13.42H14.1584V16.698Z" fill="white"/>
</mask>
<g mask="url(#mask3_137_1200)">
<path d="M10.8911 17.6H11.1089L14.3109 15.906L13.0475 22.264L10.8911 22.022L8.73465 22.264L7.47128 15.906L10.6733 17.6H10.8911Z" fill="#C1CAD4"/>
</g>
<mask id="mask4_137_1200" style="mask-type:luminance" maskUnits="userSpaceOnUse" x="0" y="13" width="22" height="9">
<path d="M14.1584 16.698L20.2356 18.392C20.9327 18.634 21.4772 19.162 21.7822 19.844V22H0V19.844C0.283168 19.162 0.849505 18.634 1.54653 18.392L7.62376 16.698V13.42H14.1584V16.698Z" fill="white"/>
</mask>
<g mask="url(#mask4_137_1200)">
<path d="M10.3465 19.58H11.4356L12.3069 22.22H9.47525L10.3465 19.58Z" fill="#216DD9"/>
</g>
<mask id="mask5_137_1200" style="mask-type:luminance" maskUnits="userSpaceOnUse" x="0" y="13" width="22" height="9">
<path d="M14.1584 16.698L20.2356 18.392C20.9327 18.634 21.4772 19.162 21.7822 19.844V22H0V19.844C0.283168 19.162 0.849505 18.634 1.54653 18.392L7.62376 16.698V13.42H14.1584V16.698Z" fill="white"/>
</mask>
<g mask="url(#mask5_137_1200)">
<path d="M8.60396 17.6H13.1782L11.4356 19.58H10.3465L8.60396 17.6Z" fill="#249CF2"/>
</g>
<mask id="mask6_137_1200" style="mask-type:luminance" maskUnits="userSpaceOnUse" x="0" y="13" width="22" height="9">
<path d="M14.1584 16.698L20.2356 18.392C20.9327 18.634 21.4772 19.162 21.7822 19.844V22H0V19.844C0.283168 19.162 0.849505 18.634 1.54653 18.392L7.62376 16.698V13.42H14.1584V16.698Z" fill="white"/>
</mask>
<g mask="url(#mask6_137_1200)">
<path d="M14.2673 15.4L11.1307 17.6L13.4832 20.02L14.3762 15.62L14.2673 15.4ZM7.51486 15.4L10.6515 17.6L8.29901 20.02L7.40594 15.62L7.51486 15.4Z" fill="white"/>
</g>
</g>
<path d="M10.8911 16.28C10.5644 16.28 10.1287 16.214 9.84554 16.082C9.49703 15.928 8.27723 15.07 7.86337 14.696C7.31881 14.19 7.03564 13.574 6.94851 12.496C6.86139 11.418 6.53465 7.59 6.53465 6.71C6.53465 5.456 7.64554 3.52 10.8911 3.52C14.1366 3.52 15.2475 5.456 15.2475 6.71C15.2475 7.59 14.9208 11.44 14.8337 12.518C14.7465 13.596 14.4851 14.212 13.9188 14.718C13.505 15.092 12.2634 15.95 11.9366 16.104C11.6535 16.214 11.2178 16.28 10.8911 16.28Z" fill="#F2CEA5"/>
<path d="M12.4158 13.2H9.36633C9.27921 13.2 9.23564 13.288 9.27921 13.376C9.56237 13.882 10.0851 14.146 10.7386 14.19C11.4139 14.234 12.1545 13.904 12.503 13.376C12.5465 13.31 12.503 13.2 12.4158 13.2Z" fill="#A3705F"/>
<path d="M12.8515 10.34C13.0921 10.34 13.2871 10.143 13.2871 9.90001C13.2871 9.657 13.0921 9.46001 12.8515 9.46001C12.6109 9.46001 12.4158 9.657 12.4158 9.90001C12.4158 10.143 12.6109 10.34 12.8515 10.34Z" fill="#262626"/>
<path d="M8.9307 10.34C9.1713 10.34 9.36634 10.143 9.36634 9.90001C9.36634 9.657 9.1713 9.46001 8.9307 9.46001C8.6901 9.46001 8.49506 9.657 8.49506 9.90001C8.49506 10.143 8.6901 10.34 8.9307 10.34Z" fill="#262626"/>
<path d="M7.62376 9.24C7.62376 9.24 7.86337 8.58 8.95248 8.58C9.69307 8.58 10.1287 8.91 10.3465 9.24" stroke="#CC9872" stroke-width="2"/>
<path d="M14.1802 9.24C14.1802 9.24 13.9406 8.58 12.8515 8.58C11.8059 8.58 11.3267 9.24 11.3267 9.68C11.3267 10.098 11.3267 11.66 11.3267 11.66" stroke="#BB8660" stroke-width="2"/>
<path d="M14.9861 10.604C14.9861 10.604 15.1604 9.218 15.7921 9.02C15.8792 8.624 16.1188 7.48 16.1188 6.842C16.1188 6.204 16.0535 5.588 15.705 5.06C15.3129 4.488 14.4851 4.158 14.0495 4.158C13.5485 4.466 12.3723 5.17 12.002 5.588C11.8059 5.808 12.0891 5.984 12.0891 5.984C12.0891 5.984 12.3505 5.874 12.4594 5.852C13.004 5.698 14.202 5.588 14.5723 6.138C15.0297 6.798 15.0297 8.734 15.0297 9.02C15.0297 9.284 14.9861 10.604 14.9861 10.604Z" fill="#D98C21"/>
<path d="M5.99009 9.02C6.62178 9.24 6.79603 10.604 6.79603 10.604C6.79603 10.604 6.75247 9.284 6.75247 9.02C6.75247 8.668 6.79603 7.018 7.49306 6.226C8.27722 5.346 9.32277 5.06 9.91089 5.456C10.2158 5.654 11.2396 6.666 12.3287 5.83C12.9822 5.324 14.1802 4.18 14.1802 4.18C14.1802 4.18 13.5485 2.222 10.6733 2.442C9.45346 2.552 8.10296 2.244 8.10296 2.244C8.10296 2.244 8.08118 2.794 8.299 3.08C6.49108 3.608 5.90296 4.928 5.72871 5.94C5.68514 6.138 5.66336 6.336 5.66336 6.534C5.66336 6.644 5.66336 6.754 5.66336 6.842C5.66336 7.48 5.90296 8.602 5.99009 9.02Z" fill="#E6A422"/>
</g>
<defs>
<clipPath id="clip0_137_1200">
<rect width="22" height="22" fill="white"/>
</clipPath>
</defs>
</svg>
