<svg width="24" height="24" viewBox="0 0 24 24" fill="none" xmlns="http://www.w3.org/2000/svg">
<g id="Property 1=Portfolio icon">
<path id="Vector" d="M22.3448 3.31034H16.1379V2.09379C16.1368 1.53882 15.9159 1.00689 15.5235 0.614466C15.131 0.22204 14.5991 0.00109354 14.0441 0H9.95586C9.40089 0.00109354 8.86896 0.22204 8.47653 0.614466C8.08411 1.00689 7.86316 1.53882 7.86207 2.09379V3.31034H1.65517C1.21619 3.31034 0.795194 3.48473 0.484789 3.79513C0.174384 4.10554 0 4.52654 0 4.96552V11.1724C0 11.4936 0.0747829 11.8104 0.218426 12.0977C0.36207 12.385 0.570629 12.6349 0.827586 12.8276V21.5172C0.827586 22.1757 1.08916 22.8072 1.55477 23.2728C2.02038 23.7384 2.65188 24 3.31034 24H20.6897C21.3481 24 21.9796 23.7384 22.4452 23.2728C22.9108 22.8072 23.1724 22.1757 23.1724 21.5172V12.8276C23.4294 12.6349 23.6379 12.385 23.7816 12.0977C23.9252 11.8104 24 11.4936 24 11.1724V4.96552C24 4.52654 23.8256 4.10554 23.5152 3.79513C23.2048 3.48473 22.7838 3.31034 22.3448 3.31034ZM8.68966 2.09379C8.68966 1.75797 8.82306 1.43591 9.06052 1.19845C9.29798 0.96099 9.62004 0.827586 9.95586 0.827586H14.0441C14.38 0.827586 14.702 0.96099 14.9395 1.19845C15.1769 1.43591 15.3103 1.75797 15.3103 2.09379V3.31034H8.68966V2.09379ZM22.3448 13.2414V21.5172C22.3448 21.9562 22.1704 22.3772 21.86 22.6876C21.5496 22.998 21.1286 23.1724 20.6897 23.1724H3.31034C2.87137 23.1724 2.45037 22.998 2.13996 22.6876C1.82956 22.3772 1.65517 21.9562 1.65517 21.5172V13.2414H3.31034V15.3103C3.31034 15.6396 3.44113 15.9553 3.67394 16.1881C3.90674 16.4209 4.22249 16.5517 4.55172 16.5517C4.88096 16.5517 5.19671 16.4209 5.42951 16.1881C5.66232 15.9553 5.7931 15.6396 5.7931 15.3103V13.2414H10.7586V14.069C10.7586 14.3982 10.8894 14.714 11.1222 14.9468C11.355 15.1796 11.6708 15.3103 12 15.3103C12.3292 15.3103 12.645 15.1796 12.8778 14.9468C13.1106 14.714 13.2414 14.3982 13.2414 14.069V13.2414H18.2069V15.3103C18.2069 15.6396 18.3377 15.9553 18.5705 16.1881C18.8033 16.4209 19.119 16.5517 19.4483 16.5517C19.7775 16.5517 20.0933 16.4209 20.3261 16.1881C20.5589 15.9553 20.6897 15.6396 20.6897 15.3103V13.2414H22.3448ZM4.13793 15.3103V11.1724C4.13793 11.0627 4.18153 10.9574 4.25913 10.8798C4.33673 10.8022 4.44198 10.7586 4.55172 10.7586C4.66147 10.7586 4.76672 10.8022 4.84432 10.8798C4.92192 10.9574 4.96552 11.0627 4.96552 11.1724V15.3103C4.96552 15.4201 4.92192 15.5253 4.84432 15.6029C4.76672 15.6805 4.66147 15.7241 4.55172 15.7241C4.44198 15.7241 4.33673 15.6805 4.25913 15.6029C4.18153 15.5253 4.13793 15.4201 4.13793 15.3103ZM11.5862 14.069V12.4138C11.5862 12.304 11.6298 12.1988 11.7074 12.1212C11.785 12.0436 11.8903 12 12 12C12.1097 12 12.215 12.0436 12.2926 12.1212C12.3702 12.1988 12.4138 12.304 12.4138 12.4138V14.069C12.4138 14.1787 12.3702 14.284 12.2926 14.3616C12.215 14.4392 12.1097 14.4828 12 14.4828C11.8903 14.4828 11.785 14.4392 11.7074 14.3616C11.6298 14.284 11.5862 14.1787 11.5862 14.069ZM19.0345 15.3103V11.1724C19.0345 11.0627 19.0781 10.9574 19.1557 10.8798C19.2333 10.8022 19.3385 10.7586 19.4483 10.7586C19.558 10.7586 19.6633 10.8022 19.7409 10.8798C19.8185 10.9574 19.8621 11.0627 19.8621 11.1724V15.3103C19.8621 15.4201 19.8185 15.5253 19.7409 15.6029C19.6633 15.6805 19.558 15.7241 19.4483 15.7241C19.3385 15.7241 19.2333 15.6805 19.1557 15.6029C19.0781 15.5253 19.0345 15.4201 19.0345 15.3103ZM23.1724 11.1724C23.1724 11.5016 23.0416 11.8174 22.8088 12.0502C22.576 12.283 22.2603 12.4138 21.931 12.4138H20.6897V11.1724C20.6897 10.8432 20.5589 10.5274 20.3261 10.2946C20.0933 10.0618 19.7775 9.93103 19.4483 9.93103C19.119 9.93103 18.8033 10.0618 18.5705 10.2946C18.3377 10.5274 18.2069 10.8432 18.2069 11.1724V12.4138H13.2414C13.2414 12.0846 13.1106 11.7688 12.8778 11.536C12.645 11.3032 12.3292 11.1724 12 11.1724C11.6708 11.1724 11.355 11.3032 11.1222 11.536C10.8894 11.7688 10.7586 12.0846 10.7586 12.4138H5.7931V11.1724C5.7931 10.8432 5.66232 10.5274 5.42951 10.2946C5.19671 10.0618 4.88096 9.93103 4.55172 9.93103C4.22249 9.93103 3.90674 10.0618 3.67394 10.2946C3.44113 10.5274 3.31034 10.8432 3.31034 11.1724V12.4138H2.06897C1.73973 12.4138 1.42398 12.283 1.19118 12.0502C0.958374 11.8174 0.827586 11.5016 0.827586 11.1724V4.96552C0.827586 4.74603 0.914778 4.53553 1.06998 4.38033C1.22518 4.22512 1.43568 4.13793 1.65517 4.13793H22.3448C22.5643 4.13793 22.7748 4.22512 22.93 4.38033C23.0852 4.53553 23.1724 4.74603 23.1724 4.96552V11.1724Z" fill="black"/>
</g>
</svg>
