<svg width="20" height="20" viewBox="0 0 20 20" fill="none" xmlns="http://www.w3.org/2000/svg">
<path d="M7.57832 9.38484H11.682C12.8232 9.38484 13.7339 8.4434 13.7339 7.29836V3.38293C13.7339 2.26867 12.7963 1.43484 11.682 1.24656C10.3064 1.01984 8.81176 1.03137 7.57832 1.25035C5.84152 1.55777 5.52648 2.19949 5.52648 3.3868V4.2248H9.63398V5.4732H3.98566C2.7907 5.4732 1.74547 6.19172 1.41891 7.55582C1.04234 9.11969 1.02699 10.0957 1.41891 11.7287C1.71094 12.943 2.40641 13.8113 3.60141 13.8113H5.0116V11.9362C5.01156 10.5799 6.18352 9.38484 7.57832 9.38484Z" fill="#347AB4"/>
<path d="M18.5537 8.17859C18.2578 6.99129 17.6969 6.09598 16.5019 6.09598H14.9611V7.91731C14.9611 9.33133 13.7622 10.5224 12.3943 10.5224H8.29063C7.16859 10.5224 6.23875 11.4831 6.23875 12.6089V16.5205C6.23875 17.6348 7.20703 18.288 8.29063 18.607C9.58934 18.9873 10.8381 19.0566 12.3943 18.607C13.428 18.3072 14.4462 17.704 14.4462 16.5205V15.7004H10.3464V14.4341H16.5018C17.6969 14.4341 18.1387 13.6002 18.5537 12.3515C18.9841 11.0642 18.9649 9.82695 18.5537 8.17859Z" fill="#FFCA1D"/>
<path d="M7.3209 3.49977C6.91156 3.49977 6.57969 3.16418 6.57969 2.75118C6.58336 2.33446 6.91156 1.99887 7.3209 1.99887C7.72656 1.99887 8.06215 2.33813 8.06215 2.75118C8.06211 3.16418 7.73024 3.49977 7.3209 3.49977Z" fill="white"/>
<path d="M12.3011 17.9717C11.8918 17.9717 11.5598 17.6361 11.5598 17.2231C11.5636 16.8064 11.8917 16.4708 12.3011 16.4708C12.7068 16.4708 13.0423 16.8101 13.0423 17.2231C13.0423 17.6361 12.7105 17.9717 12.3011 17.9717Z" fill="white"/>
</svg>
