<svg width="20" height="20" viewBox="0 0 20 20" fill="none" xmlns="http://www.w3.org/2000/svg">
<path fill-rule="evenodd" clip-rule="evenodd" d="M12.9223 14.3017C12.7895 14.3492 12.6463 14.375 12.4969 14.375H11.8781C11.1837 14.375 10.625 13.8137 10.625 13.1213V11.2537C10.625 10.5541 11.186 10 11.8781 10H12.4969C13.1913 10 13.75 10.5613 13.75 11.2537V13.1213C13.75 13.4371 13.6357 13.7233 13.4466 13.9422L13.9174 14.4129L13.4754 14.8549L12.9223 14.3017ZM12.3706 13.75H11.8743C11.5267 13.75 11.25 13.4702 11.25 13.1251V11.2499C11.25 10.9023 11.5295 10.625 11.8743 10.625H12.5007C12.8483 10.625 13.125 10.9048 13.125 11.2499V13.1251C13.125 13.2654 13.0795 13.3942 13.0025 13.498L12.1496 12.6451L11.7076 13.0871L12.3706 13.75ZM13.125 8.125V6.25L9.375 1.875H2.50172C1.81042 1.875 1.25 2.43646 1.25 3.12958V17.4954C1.25 18.1883 1.80683 18.75 2.49839 18.75H11.8766C12.5661 18.75 13.125 18.1886 13.125 17.5058V16.25H17.4957C18.5336 16.25 19.375 15.4111 19.375 14.3758V9.99924C19.375 8.96413 18.54 8.125 17.4957 8.125H13.125ZM12.5 16.25V17.5041C12.5 17.8469 12.2202 18.125 11.875 18.125H2.49998C2.15919 18.125 1.875 17.8464 1.875 17.5028V3.12216C1.875 2.78454 2.15358 2.5 2.49724 2.5H8.75V5.6213C8.75 6.3209 9.30906 6.875 9.9987 6.875H12.5V8.125H6.87928C5.84138 8.125 5 8.96392 5 9.99924V14.3758C5 15.4109 5.83499 16.25 6.87928 16.25H12.5ZM9.375 2.8125V5.61951C9.375 5.96772 9.65666 6.25 9.99796 6.25H12.3125L9.375 2.8125ZM6.8716 8.75C6.18312 8.75 5.625 9.31261 5.625 9.99501V14.38C5.625 15.0676 6.18896 15.625 6.8716 15.625H17.5034C18.1919 15.625 18.75 15.0624 18.75 14.38V9.99501C18.75 9.30741 18.186 8.75 17.5034 8.75H6.8716ZM8.12805 10C7.43601 10 6.875 10.5548 6.875 11.25C6.875 11.9404 7.42983 12.5 8.125 12.5H8.74414C9.09256 12.5 9.375 12.7774 9.375 13.125C9.375 13.4702 9.09834 13.75 8.75065 13.75H8.12435C7.77953 13.75 7.5 13.4648 7.5 13.1278V13.1207H6.875V13.1243C6.875 13.8151 7.43369 14.375 8.12805 14.375H8.74695C9.43899 14.375 10 13.8202 10 13.125C10 12.4346 9.44517 11.875 8.75 11.875H8.13086C7.78244 11.875 7.5 11.5976 7.5 11.25C7.5 10.9048 7.77666 10.625 8.12435 10.625H8.75065C9.09547 10.625 9.375 10.9082 9.375 11.25H10C10 10.5596 9.44131 10 8.74695 10H8.12805ZM17.5 13.75V14.375H14.375V10H15V13.75H17.5Z" fill="#157EFB"/>
</svg>
