<svg width="20" height="20" viewBox="0 0 20 20" fill="none" xmlns="http://www.w3.org/2000/svg">
<path d="M17.5 2.5H2.5V17.5H17.5V2.5Z" fill="url(#paint0_linear_104_421)"/>
<path d="M11.4542 9.16667H5.92792V10.5267H7.91V16.6667H9.48042V10.5267H11.4542V9.16667Z" fill="white"/>
<path d="M16.3308 10.8683C16.3308 10.8683 15.5863 10.3717 14.7446 10.3717C13.9029 10.3717 13.6 10.7717 13.6 11.1992C13.6 12.3025 16.6754 12.1921 16.6754 14.4125C16.6754 17.8329 11.9863 16.3158 11.9863 16.3158V14.675C11.9863 14.675 12.8829 15.3508 13.9583 15.3508C15.0338 15.3508 14.9929 14.6475 14.9929 14.5508C14.9929 13.5304 11.945 13.5304 11.945 11.2683C11.945 8.19291 16.3858 9.40625 16.3858 9.40625L16.3308 10.8683Z" fill="white"/>
<defs>
<linearGradient id="paint0_linear_104_421" x1="6.32875" y1="-0.0866667" x2="13.4483" y2="19.4738" gradientUnits="userSpaceOnUse">
<stop stop-color="#2AA4F4"/>
<stop offset="1" stop-color="#007AD9"/>
</linearGradient>
</defs>
</svg>
