<svg width="20" height="20" viewBox="0 0 20 20" fill="none" xmlns="http://www.w3.org/2000/svg">
<path d="M12.918 0.234375H3.43359V19.7656H17.5469V4.79688L12.918 0.234375Z" fill="#E1F9EC"/>
<path d="M12.918 0.234375L17.5469 4.79688H12.918V0.234375Z" fill="#55A47E"/>
<path d="M15.3047 11.6719H2.45312V17.7695H15.3047V11.6719Z" fill="#55A47E"/>
<path d="M2.45312 17.7695L3.43359 18.5977V17.7695H2.45312Z" fill="#377753"/>
<path d="M5.99609 14.7344H6.00781L6.31641 14.0156H7.17188L6.46484 15.2227L7.19922 16.457H6.34375L6.01953 15.7148H6.00781L5.68359 16.457H4.82812L5.5625 15.2227L4.85156 14.0156H5.69922L5.99609 14.7344Z" fill="white"/>
<path d="M8.44531 14.0117L8.47266 14.3359C8.55078 14.2188 8.64453 14.1289 8.76172 14.0625C8.87891 14 9.01172 13.9648 9.16016 13.9648C9.3125 13.9648 9.44141 13.9961 9.55078 14.0625C9.66016 14.1289 9.74219 14.2305 9.79688 14.3633C9.87109 14.2344 9.96875 14.1367 10.0859 14.0664C10.2031 13.9961 10.3398 13.9609 10.5 13.9609C10.7383 13.9609 10.9258 14.0469 11.0586 14.2148C11.1953 14.3867 11.2617 14.6484 11.2617 15.0039V16.4453H10.4961V15.0039C10.4961 14.8281 10.4727 14.7109 10.4219 14.6445C10.3711 14.5781 10.3008 14.5469 10.2031 14.5469C10.1289 14.5469 10.0664 14.5586 10.0078 14.5859C9.95313 14.6133 9.90234 14.6484 9.86328 14.6953C9.86328 14.7227 9.86328 14.7422 9.86719 14.7617C9.86719 14.7812 9.87109 14.8008 9.87109 14.8164V16.4453H9.10938V15.0039C9.10938 14.8281 9.08594 14.707 9.03906 14.6445C8.99219 14.5781 8.91797 14.5469 8.81641 14.5469C8.74609 14.5469 8.68359 14.5586 8.62891 14.5859C8.57422 14.6133 8.52344 14.6484 8.48438 14.6953V16.4453H7.72266V14.0078H8.44531V14.0117Z" fill="white"/>
<path d="M12.8242 16.4531H12.0586V12.9375H12.8242V16.4531Z" fill="white"/>
</svg>
