<svg width="24" height="24" viewBox="0 0 24 24" fill="none" xmlns="http://www.w3.org/2000/svg">
<g id="Property 1=CV icon">
<path id="Vector" d="M23.7413 7.03396L12.4077 0.108853C12.2765 0.0370941 12.1344 0 11.9907 0C11.8469 0 11.7048 0.0370941 11.5736 0.108853L0.242736 7.03396C0.172165 7.06207 0.11068 7.11673 0.0670801 7.19012C0.0234801 7.26352 0 7.35188 0 7.44257C0 7.53325 0.0234801 7.62162 0.0670801 7.69501C0.11068 7.7684 0.172165 7.82307 0.242736 7.85117L1.95623 8.89629H1.86562V20.4674C1.73858 20.5562 1.63571 20.6887 1.56983 20.8484L0.829 22.6781C0.772362 22.8175 0.745734 22.9721 0.751635 23.1275C0.757535 23.2829 0.795768 23.4339 0.862721 23.5662C0.929673 23.6985 1.02313 23.8078 1.13427 23.8837C1.24541 23.9596 1.37055 23.9996 1.49787 24H2.99818C3.12609 24.0005 3.25197 23.9609 3.36381 23.885C3.47565 23.8092 3.56972 23.6996 3.63706 23.5667C3.7044 23.4339 3.74275 23.2821 3.74847 23.126C3.75419 22.9699 3.72707 22.8146 3.66972 22.6749L2.93156 20.8484C2.86567 20.6887 2.7628 20.5562 2.63576 20.4674V9.30326L4.50115 10.4493V16.1079C4.50115 17.3907 5.3006 18.5823 6.74494 19.4646C8.15197 20.3242 10.0174 20.7963 11.9973 20.7963C13.9773 20.7963 15.8427 20.3242 17.2497 19.4646C18.6967 18.5823 19.4935 17.3874 19.4935 16.1079V10.4493L23.7573 7.84466C23.8278 7.81655 23.8893 7.76189 23.9329 7.6885C23.9765 7.61511 24 7.52674 24 7.43606C24 7.34537 23.9765 7.25701 23.9329 7.18361C23.8893 7.11022 23.8278 7.05556 23.7573 7.02745L23.7413 7.03396ZM2.99818 23.0884H1.49787L2.24669 21.2586L2.99818 23.0884ZM18.7367 16.1079C18.7367 17.026 18.0865 17.9279 16.9086 18.6474C15.6055 19.4419 13.8574 19.8846 11.992 19.8846C10.1266 19.8846 8.37849 19.4419 7.07538 18.6474C5.89752 17.9279 5.2473 17.0195 5.2473 16.1079V10.8986L11.5736 14.773C11.7048 14.8448 11.8469 14.8819 11.9907 14.8819C12.1344 14.8819 12.2765 14.8448 12.4077 14.773L18.7367 10.9051V16.1079ZM12.0746 13.9493C12.0464 13.9549 12.0176 13.9549 11.9893 13.9493C11.9619 13.954 11.9341 13.954 11.9067 13.9493L1.24738 7.43768L11.9067 0.926061C11.935 0.920469 11.9638 0.920469 11.992 0.926061C12.0194 0.921383 12.0472 0.921383 12.0746 0.926061L22.734 7.43768L12.0746 13.9493Z" fill="black"/>
</g>
</svg>
