<svg width="22" height="22" viewBox="0 0 22 22" fill="none" xmlns="http://www.w3.org/2000/svg">
<path d="M13.4638 8.97488L13.4694 9.6873C13.4699 9.74831 13.4944 9.80667 13.5377 9.84966C13.581 9.89264 13.6396 9.91676 13.7006 9.91675C13.731 9.91659 13.761 9.91042 13.789 9.89862C13.817 9.88681 13.8424 9.8696 13.8637 9.84796C13.885 9.82632 13.9018 9.80069 13.9132 9.77253C13.9246 9.74437 13.9303 9.71424 13.93 9.68386L13.9249 8.9723C13.9218 8.36774 13.7319 7.77892 13.381 7.28658C13.0301 6.79424 12.5355 6.42249 11.9651 6.2223C12.3202 6.00745 12.5953 5.6823 12.7483 5.29649C12.9013 4.91068 12.9239 4.48539 12.8125 4.08554C12.7012 3.6857 12.4621 3.33326 12.1317 3.08203C11.8014 2.8308 11.3979 2.69457 10.9828 2.69414H10.9751C10.5596 2.69673 10.1565 2.83523 9.82712 3.08848C9.49779 3.34174 9.2604 3.69582 9.1512 4.09666C9.042 4.49751 9.06701 4.92307 9.22239 5.30837C9.37777 5.69367 9.65499 6.01752 10.0117 6.23047C9.44328 6.43569 8.95228 6.81179 8.60609 7.30716C8.25989 7.80252 8.07547 8.39288 8.07812 8.99722L8.08285 9.70965C8.08319 9.77073 8.1077 9.8292 8.15101 9.87228C8.19433 9.91535 8.25293 9.93953 8.31402 9.93953C8.3444 9.93936 8.37444 9.9332 8.40242 9.92139C8.43041 9.90958 8.45579 9.89237 8.47711 9.87073C8.49843 9.84909 8.51526 9.82346 8.52665 9.7953C8.53804 9.76714 8.54376 9.73701 8.54347 9.70664L8.53875 8.99508C8.53733 8.67158 8.59967 8.35098 8.7222 8.05158C8.84473 7.75219 9.02505 7.47987 9.25286 7.25019C9.48067 7.02051 9.7515 6.83796 10.0499 6.71298C10.3483 6.588 10.6683 6.52303 10.9918 6.52179H11C11.6515 6.52224 12.2762 6.78049 12.7379 7.24013C13.1996 7.69977 13.4605 8.32344 13.4638 8.97488ZM9.54465 4.60109C9.54362 4.21972 9.69383 3.8535 9.96237 3.58271C10.2309 3.31192 10.5959 3.15864 10.9772 3.15648H10.9828C11.3646 3.15568 11.731 3.30657 12.0015 3.57596C12.2721 3.84535 12.4245 4.21116 12.4253 4.59293C12.4261 4.97469 12.2752 5.34114 12.0058 5.61166C11.7364 5.88217 11.3706 6.03459 10.9888 6.03539C10.6245 6.05773 10.2429 5.88929 9.97047 5.61859C9.83551 5.48574 9.72835 5.32735 9.65524 5.15266C9.58213 4.97797 9.54453 4.79047 9.54465 4.60109Z" fill="black"/>
<path d="M8.45238 13.6933H6.12992V12.2255C6.75479 12.4832 7.40205 12.6828 8.06351 12.8219C8.33434 12.8814 8.61773 12.8309 8.85134 12.6815C9.08494 12.5321 9.24963 12.2961 9.30918 12.0252C9.36872 11.7544 9.31824 11.471 9.16884 11.2374C9.01944 11.0038 8.78336 10.8391 8.51254 10.7796C6.65672 10.3623 5.78918 9.3616 5.38871 8.59547C5.26971 8.36621 5.09673 8.16934 4.88469 8.02184C5.32852 7.8178 5.68917 7.46803 5.90669 7.03065C6.1242 6.59326 6.1855 6.09461 6.08037 5.61757C5.97525 5.14053 5.71004 4.71383 5.32883 4.40839C4.94762 4.10295 4.47336 3.93716 3.98487 3.93858C3.49639 3.94 3.0231 4.10854 2.64367 4.41619C2.26424 4.72384 2.00151 5.15207 1.89916 5.62971C1.79681 6.10736 1.861 6.60564 2.08105 7.04175C2.30111 7.47787 2.66378 7.82554 3.10879 8.02699C2.91066 8.16546 2.74883 8.34965 2.63701 8.56394C2.52519 8.77824 2.46667 9.01633 2.46641 9.25805V14.0005C2.46709 14.5075 2.66882 14.9935 3.02735 15.352C3.38589 15.7104 3.87196 15.912 4.37894 15.9126H7.93031V19.0747C7.93031 19.136 7.95467 19.1948 7.99802 19.2382C8.04137 19.2815 8.10017 19.3059 8.16148 19.3059C8.22279 19.3059 8.28159 19.2815 8.32495 19.2382C8.3683 19.1948 8.39266 19.136 8.39266 19.0747V15.6836C8.39266 15.6223 8.3683 15.5635 8.32495 15.5201C8.28159 15.4768 8.22279 15.4524 8.16148 15.4524H4.38023C3.99583 15.452 3.6273 15.2991 3.35544 15.0273C3.08359 14.7555 2.93061 14.3871 2.93004 14.0027V9.25805C2.93038 8.98229 3.0401 8.71794 3.23513 8.52299C3.43016 8.32805 3.69456 8.21843 3.97031 8.2182H4.03906C4.42578 8.2182 4.78672 8.44508 4.97793 8.80988C5.42351 9.66281 6.38086 10.7748 8.41027 11.2307C8.48643 11.2458 8.55881 11.2759 8.62318 11.3193C8.68755 11.3627 8.74261 11.4185 8.78512 11.4834C8.82764 11.5484 8.85676 11.6212 8.87077 11.6975C8.88479 11.7739 8.88341 11.8522 8.86673 11.9281C8.85005 12.0039 8.8184 12.0756 8.77364 12.139C8.72888 12.2024 8.6719 12.2563 8.60605 12.2974C8.5402 12.3385 8.46681 12.366 8.39017 12.3784C8.31354 12.3908 8.2352 12.3877 8.15976 12.3694C7.30039 12.1834 6.08609 11.828 5.19492 11.1916C4.55039 10.731 4.1843 10.193 4.10609 9.59277C4.10255 9.56263 4.09303 9.5335 4.07808 9.50708C4.06314 9.48067 4.04308 9.4575 4.01907 9.43893C3.99506 9.42036 3.96759 9.40677 3.93826 9.39895C3.90894 9.39114 3.87835 9.38925 3.84828 9.3934C3.78778 9.40144 3.7329 9.43303 3.69557 9.4813C3.65824 9.52958 3.64147 9.59064 3.64891 9.65121C3.74473 10.3817 4.17527 11.0262 4.92809 11.5663C5.16304 11.7328 5.4104 11.8811 5.66801 12.0098V13.9227C5.66801 13.984 5.69236 14.0428 5.73572 14.0862C5.77907 14.1296 5.83787 14.1539 5.89918 14.1539H8.45281C8.80124 14.1545 9.13521 14.2932 9.38146 14.5397C9.62772 14.7862 9.76614 15.1203 9.76637 15.4688V19.0738C9.76637 19.1351 9.79072 19.1939 9.83407 19.2373C9.87743 19.2806 9.93623 19.305 9.99754 19.305C10.0588 19.305 10.1176 19.2806 10.161 19.2373C10.2044 19.1939 10.2287 19.1351 10.2287 19.0738V15.4688C10.228 14.9979 10.0406 14.5466 9.70763 14.2138C9.37463 13.8809 8.92321 13.6937 8.45238 13.6933ZM2.31258 6.07836C2.31258 5.74692 2.41086 5.42293 2.595 5.14735C2.77913 4.87177 3.04086 4.65698 3.34706 4.53014C3.65327 4.4033 3.99022 4.37012 4.31529 4.43478C4.64036 4.49944 4.93895 4.65904 5.17331 4.8934C5.40768 5.12777 5.56728 5.42636 5.63194 5.75143C5.6966 6.0765 5.66341 6.41345 5.53658 6.71965C5.40974 7.02586 5.19495 7.28758 4.91937 7.47172C4.64379 7.65586 4.3198 7.75414 3.98836 7.75414C3.54419 7.75323 3.11848 7.57639 2.80441 7.26231C2.49033 6.94824 2.31349 6.52253 2.31258 6.07836Z" fill="black"/>
<path d="M18.8925 8.02699C19.3376 7.82554 19.7004 7.47781 19.9206 7.04161C20.1407 6.60541 20.2049 6.10701 20.1026 5.62925C20.0002 5.15149 19.7374 4.72315 19.3579 4.41541C18.9784 4.10768 18.505 3.9391 18.0164 3.93768C17.5278 3.93626 17.0534 4.10209 16.6722 4.40762C16.2909 4.71314 16.0256 5.13995 15.9205 5.61711C15.8154 6.09426 15.8767 6.59303 16.0943 7.0305C16.3119 7.46797 16.6726 7.8178 17.1166 8.02184C16.9049 8.16883 16.732 8.36511 16.613 8.59375C16.2121 9.35989 15.3441 10.3611 13.4888 10.7779C13.2179 10.8375 12.9819 11.0023 12.8326 11.236C12.6833 11.4697 12.6329 11.7531 12.6925 12.0239C12.7522 12.2948 12.917 12.5308 13.1507 12.6801C13.3844 12.8294 13.6678 12.8798 13.9386 12.8202C14.6001 12.6812 15.2474 12.4815 15.8722 12.2238V13.6916H13.5476C13.0769 13.6926 12.6257 13.8803 12.2932 14.2134C11.9606 14.5466 11.7737 14.998 11.7734 15.4688V19.0738C11.7734 19.1351 11.7978 19.1939 11.8411 19.2373C11.8845 19.2806 11.9433 19.305 12.0046 19.305C12.0659 19.305 12.1247 19.2806 12.1681 19.2373C12.2114 19.1939 12.2358 19.1351 12.2358 19.0738V15.4688C12.2361 15.1204 12.3746 14.7865 12.6209 14.5402C12.8671 14.2938 13.201 14.1552 13.5493 14.1548H16.1034C16.1647 14.1548 16.2235 14.1304 16.2669 14.0871C16.3102 14.0437 16.3346 13.9849 16.3346 13.9236V12.0111C16.592 11.8825 16.8393 11.7344 17.0741 11.568C17.8269 11.0297 18.2574 10.3851 18.3532 9.65293C18.3586 9.59336 18.3408 9.534 18.3034 9.4873C18.266 9.4406 18.212 9.41018 18.1527 9.4024C18.0934 9.39463 18.0334 9.41011 17.9852 9.44559C17.937 9.48108 17.9045 9.53382 17.8943 9.59278C17.8161 10.1943 17.4496 10.731 16.8055 11.1916C15.9156 11.828 14.7035 12.1834 13.8428 12.3694C13.7677 12.387 13.6898 12.3894 13.6137 12.3766C13.5376 12.3638 13.4648 12.3361 13.3995 12.295C13.3342 12.2538 13.2777 12.2002 13.2333 12.1371C13.1889 12.0739 13.1575 12.0026 13.1409 11.9273C13.1243 11.8519 13.1227 11.774 13.1364 11.6981C13.1501 11.6222 13.1788 11.5497 13.2207 11.4849C13.2626 11.4201 13.3169 11.3643 13.3806 11.3207C13.4442 11.277 13.5159 11.2465 13.5914 11.2307C15.62 10.7753 16.5782 9.66282 17.0242 8.80989C17.215 8.44508 17.5746 8.21821 17.9627 8.21821H18.0348C18.3105 8.21855 18.5747 8.32823 18.7696 8.52317C18.9645 8.71812 19.074 8.98241 19.0743 9.25805V14.0005C19.0737 14.3849 18.9207 14.7534 18.6489 15.0252C18.377 15.2969 18.0085 15.4498 17.6241 15.4503H13.8428C13.7815 15.4503 13.7227 15.4746 13.6793 15.518C13.636 15.5613 13.6116 15.6201 13.6116 15.6814V19.076C13.6142 19.1356 13.6397 19.192 13.6828 19.2333C13.7259 19.2746 13.7833 19.2976 13.843 19.2976C13.9027 19.2976 13.9601 19.2746 14.0032 19.2333C14.0463 19.192 14.0718 19.1356 14.0744 19.076V15.9126H17.6249C18.1319 15.9121 18.618 15.7104 18.9765 15.352C19.335 14.9935 19.5368 14.5075 19.5375 14.0005V9.25805C19.5369 9.01611 19.478 8.77787 19.3657 8.56355C19.2534 8.34924 19.0911 8.16518 18.8925 8.02699ZM16.3329 6.07836C16.3329 5.74692 16.4311 5.42293 16.6153 5.14735C16.7994 4.87177 17.0611 4.65698 17.3673 4.53014C17.6735 4.40331 18.0105 4.37012 18.3356 4.43478C18.6606 4.49944 18.9592 4.65904 19.1936 4.89341C19.428 5.12777 19.5876 5.42636 19.6522 5.75143C19.7169 6.0765 19.6837 6.41345 19.5569 6.71966C19.43 7.02587 19.2152 7.28759 18.9396 7.47172C18.6641 7.65586 18.3401 7.75414 18.0086 7.75414C17.5645 7.75312 17.1389 7.57624 16.8248 7.26219C16.5108 6.94814 16.3339 6.52249 16.3329 6.07836Z" fill="black"/>
</svg>
