<svg width="20" height="20" viewBox="0 0 20 20" fill="none" xmlns="http://www.w3.org/2000/svg">
<path d="M10 17.8125C14.3147 17.8125 17.8125 14.3147 17.8125 10C17.8125 5.68528 14.3147 2.1875 10 2.1875C5.68528 2.1875 2.1875 5.68528 2.1875 10C2.1875 14.3147 5.68528 17.8125 10 17.8125Z" fill="#F0DB4F"/>
<path d="M7.5625 6.96875H8.92187V10.7969C8.92187 12.5156 8.09375 13.125 6.78125 13.125C6.45313 13.125 6.04688 13.0781 5.78125 12.9844L5.9375 11.875C6.125 11.9375 6.375 11.9844 6.64062 11.9844C7.21875 11.9844 7.57812 11.7188 7.57812 10.7969L7.5625 6.96875Z" fill="#323330"/>
<path d="M10.125 11.625C10.4844 11.8125 11.0625 12 11.6406 12C12.2656 12 12.5938 11.7344 12.5938 11.3281C12.5938 10.9531 12.3125 10.7344 11.5781 10.4844C10.5781 10.125 9.90625 9.5625 9.90625 8.67188C9.90625 7.65625 10.7812 6.875 12.2031 6.875C12.8906 6.875 13.3906 7.01562 13.75 7.1875L13.4375 8.28125C13.2031 8.17188 12.7656 8 12.1875 8C11.5938 8 11.3125 8.28125 11.3125 8.57813C11.3125 8.96875 11.6406 9.14063 12.4375 9.4375C13.5 9.82813 14 10.3906 14 11.25C14 12.2656 13.2344 13.125 11.5625 13.125C10.875 13.125 10.1875 12.9375 9.84375 12.75L10.125 11.625Z" fill="#323330"/>
</svg>
