<svg width="24" height="28" viewBox="0 0 24 28" fill="none" xmlns="http://www.w3.org/2000/svg">
<path d="M22.2998 5.53206L16.6429 0H3.7462C2.88599 0 2.18778 0.681807 2.18778 1.52357V24.7335C2.18778 25.5745 2.88518 26.2571 3.7462 26.2571H20.9107C21.7709 26.2571 22.4691 25.5753 22.4691 24.7335V5.53206H22.2998Z" fill="#E5E7EB"/>
<path d="M11.386 2.97113H1.17935C0.528113 2.97113 0 3.48743 0 4.1241V11.1021H11.386C12.0373 11.1021 12.5654 10.5858 12.5654 9.94916V4.1241C12.5654 3.48743 12.0373 2.97113 11.386 2.97113Z" fill="#F8203D"/>
<path d="M2.18292 13.606L0 11.1021H2.18292V13.606Z" fill="#BF192F"/>
<path d="M22.4691 5.69756C22.4691 5.31825 22.3152 4.95557 22.0423 4.68792L17.674 0.41732C17.4002 0.150457 17.0292 0 16.6429 0V4.49232C16.6429 5.1575 17.1945 5.69677 17.8749 5.69677H22.4683L22.4691 5.69756Z" fill="#9CA3AF"/>
<path d="M2.62518 5.78705H3.93817C4.2241 5.78705 4.43793 5.85357 4.58049 5.9866C4.72305 6.11964 4.79433 6.3089 4.79433 6.55438C4.79433 6.79986 4.71657 7.00416 4.56186 7.14591C4.40634 7.28766 4.16983 7.35893 3.8515 7.35893H3.41897V8.28621H2.62599V5.78784L2.62518 5.78705ZM3.41816 6.85212H3.61174C3.76402 6.85212 3.87094 6.82599 3.9325 6.77452C3.99406 6.72305 4.02484 6.65653 4.02484 6.57576C4.02484 6.49499 3.99811 6.43084 3.94465 6.3762C3.89119 6.32157 3.79075 6.29464 3.64333 6.29464H3.41816V6.85212Z" fill="#F9FAFB"/>
<path d="M5.21796 5.78705H6.39163C6.62248 5.78705 6.80959 5.81793 6.95215 5.87891C7.0947 5.94067 7.21215 6.02857 7.3053 6.14339C7.39845 6.25822 7.46568 6.39204 7.5078 6.54408C7.54992 6.69612 7.57017 6.85767 7.57017 7.02792C7.57017 7.29478 7.53939 7.50225 7.47702 7.64954C7.41465 7.79683 7.32879 7.92037 7.21782 8.01935C7.10766 8.11913 6.98859 8.18485 6.86224 8.21811C6.6889 8.26325 6.53176 8.28621 6.39163 8.28621H5.21796V5.78784V5.78705ZM6.0077 6.35324V7.71844H6.20128C6.36652 7.71844 6.48397 7.70022 6.55363 7.66459C6.62329 7.62896 6.67756 7.5664 6.71725 7.47691C6.75694 7.38743 6.77638 7.24331 6.77638 7.04297C6.77638 6.77848 6.73183 6.59714 6.64354 6.49895C6.55525 6.40075 6.40864 6.35245 6.20452 6.35245H6.0077V6.35324Z" fill="#F9FAFB"/>
<path d="M7.98812 5.78705H9.94101V6.32394H8.78191V6.76027H9.77253V7.26469H8.78191V8.28542H7.98893V5.78705H7.98812Z" fill="#F9FAFB"/>
<path d="M8.41093 23.4055C8.08694 23.4055 7.77671 23.2947 7.54505 23.0856C7.29477 22.8599 7.17327 22.5566 7.20162 22.232C7.23807 21.8178 7.52156 21.3846 7.92413 21.1305C8.51866 20.7535 9.41451 20.3829 10.0009 20.2071L10.555 19.9759C10.9818 19.1262 11.3844 18.2409 11.689 17.3326C11.0078 16.4782 10.619 15.4337 10.6246 14.3813C10.6263 14.1057 10.7194 13.8388 10.8871 13.6282C11.1123 13.3455 11.4241 13.2053 11.7675 13.2331C12.149 13.2639 12.5176 13.5039 12.7071 13.8452C12.9137 14.2166 12.912 14.6252 12.8788 15.0108C12.8157 15.7496 12.6601 16.4758 12.4439 17.1853C12.6901 17.4498 12.9704 17.6882 13.2814 17.8925C13.5374 18.0603 13.8184 18.2195 14.1133 18.3636L14.8682 17.993C15.3534 17.7951 15.9212 17.59 16.5246 17.6668C16.5886 17.6747 16.6566 17.6913 16.7263 17.7143C17.2787 17.9004 17.5646 18.4024 17.4229 18.9338C17.2925 19.42 16.7976 19.8476 16.105 19.7249C15.4611 19.6108 14.771 19.3907 14.1197 19.1001L12.7217 19.7882L11.0507 20.4867C10.8126 20.9539 10.5687 21.4092 10.3322 21.8519C10.039 22.4014 9.67371 23.0848 8.83942 23.3406C8.69767 23.3841 8.55268 23.4055 8.41093 23.4055ZM10.0925 20.8707C9.48903 21.0639 8.73655 21.4021 8.29106 21.684C8.06426 21.8273 7.89254 22.076 7.87391 22.2882C7.86338 22.4117 7.90388 22.5115 8.0027 22.601C8.15579 22.7388 8.40445 22.7823 8.63611 22.711C9.1626 22.5495 9.42261 22.1258 9.73284 21.5462C9.8511 21.3245 9.97178 21.0996 10.0925 20.8707ZM12.2074 17.8925C11.9984 18.4682 11.7546 19.032 11.4954 19.5823L12.4455 19.1848L13.3762 18.7263C13.2134 18.6345 13.0554 18.5394 12.9048 18.4397C12.6553 18.2757 12.422 18.092 12.2082 17.8917L12.2074 17.8925ZM14.9135 18.7081C15.3574 18.8736 15.8061 19.0011 16.2249 19.0755C16.5724 19.1373 16.7303 18.9108 16.7692 18.7667C16.7943 18.6733 16.8186 18.4436 16.506 18.3383C16.4728 18.3272 16.4501 18.3225 16.4371 18.3209C16.003 18.2662 15.5405 18.4333 15.1387 18.5972L14.9135 18.7081ZM11.6849 13.8895C11.5837 13.8895 11.497 13.937 11.42 14.0336C11.3423 14.131 11.301 14.2522 11.3002 14.3844C11.2961 15.1288 11.5229 15.8692 11.932 16.5194C12.0656 16.0038 12.162 15.482 12.2065 14.9562C12.2349 14.6283 12.2292 14.3678 12.1142 14.1603C12.034 14.0162 11.8647 13.903 11.7116 13.8903C11.7027 13.8903 11.6938 13.8895 11.6849 13.8895Z" fill="#F8203D"/>
</svg>
