<svg width="22" height="22" viewBox="0 0 22 22" fill="none" xmlns="http://www.w3.org/2000/svg">
<path d="M20.02 8.01108C20.02 7.95284 19.9969 7.89699 19.9558 7.85576L18.568 6.468C18.5267 6.42675 18.4708 6.40358 18.4125 6.40358C18.3541 6.40358 18.2982 6.42675 18.2569 6.468L14.6168 10.1064V3.08C14.6168 2.78826 14.5009 2.50847 14.2946 2.30218C14.0883 2.09589 13.8085 1.98 13.5168 1.98H3.08C2.78827 1.98 2.50848 2.09589 2.30219 2.30218C2.0959 2.50847 1.98 2.78826 1.98 3.08V18.92C1.98 19.2117 2.0959 19.4915 2.30219 19.6978C2.50848 19.9041 2.78827 20.02 3.08 20.02H13.5168C13.8085 20.02 14.0883 19.9041 14.2946 19.6978C14.5009 19.4915 14.6168 19.2117 14.6168 18.92V13.5054L19.9558 8.16684C19.9762 8.14637 19.9924 8.12208 20.0034 8.09535C20.0144 8.06862 20.0201 8.03999 20.02 8.01108Z" fill="#231F20"/>
<path d="M11.8835 12.8401C11.8649 12.8595 11.85 12.8822 11.8395 12.907L10.8715 15.1118C10.8358 15.1742 10.8211 15.2464 10.8298 15.3178C10.8384 15.3891 10.8699 15.4558 10.9195 15.5078C10.9491 15.5371 10.9842 15.5603 11.0227 15.5761C11.0613 15.5918 11.1027 15.5997 11.1443 15.5993C11.1992 15.5993 11.2532 15.586 11.3018 15.5606L12.9241 14.8478V18.3396H3.55212V3.66124H5.41816C5.54281 3.86458 5.71741 4.03266 5.92535 4.14948C6.13328 4.26631 6.36765 4.32801 6.60616 4.32872H9.988C10.2265 4.32801 10.4609 4.26631 10.6688 4.14948C10.8767 4.03266 11.0513 3.86458 11.176 3.66124H12.9184V11.8012L11.8835 12.8401Z" fill="white"/>
<path d="M14.1768 18.92C14.1768 19.095 14.1073 19.2629 13.9835 19.3867C13.8597 19.5105 13.6918 19.58 13.5168 19.58H3.08C2.90496 19.58 2.73708 19.5105 2.61331 19.3867C2.48953 19.2629 2.42 19.095 2.42 18.92V3.08C2.42 2.90496 2.48953 2.73708 2.61331 2.61331C2.73708 2.48953 2.90496 2.42 3.08 2.42H5.20476V2.926C5.205 3.02529 5.21592 3.12428 5.23732 3.22124H3.33212C3.27377 3.22124 3.21781 3.24442 3.17655 3.28567C3.1353 3.32693 3.11212 3.38289 3.11212 3.44124V18.5588C3.11212 18.6171 3.1353 18.6731 3.17655 18.7143C3.21781 18.7556 3.27377 18.7788 3.33212 18.7788H13.141C13.1994 18.7788 13.2553 18.7556 13.2966 18.7143C13.3379 18.6731 13.361 18.6171 13.361 18.5588V14.652L13.5159 14.5838C13.5409 14.5734 13.5637 14.5585 13.5832 14.5398L14.1768 13.9458V18.92Z" fill="#00A1D3"/>
<path d="M8.151 6.95772H12.188C12.2463 6.95772 12.3023 6.93454 12.3436 6.89328C12.3848 6.85202 12.408 6.79606 12.408 6.73772C12.408 6.67937 12.3848 6.62341 12.3436 6.58215C12.3023 6.54089 12.2463 6.51772 12.188 6.51772H8.151C8.09265 6.51772 8.03669 6.54089 7.99544 6.58215C7.95418 6.62341 7.931 6.67937 7.931 6.73772C7.931 6.79606 7.95418 6.85202 7.99544 6.89328C8.03669 6.93454 8.09265 6.95772 8.151 6.95772Z" fill="#231F20"/>
<path d="M6.19652 6.21764L5.69096 6.7232L5.49604 6.52828C5.47575 6.50727 5.45147 6.49051 5.42463 6.47898C5.39779 6.46745 5.36892 6.46138 5.33971 6.46113C5.3105 6.46087 5.28153 6.46644 5.25449 6.4775C5.22745 6.48856 5.20289 6.5049 5.18223 6.52555C5.16158 6.54621 5.14524 6.57077 5.13418 6.59781C5.12312 6.62485 5.11755 6.65382 5.11781 6.68303C5.11806 6.71224 5.12413 6.74111 5.13566 6.76795C5.14719 6.79479 5.16395 6.81907 5.18496 6.83936L5.53696 7.19136C5.57822 7.2326 5.63417 7.25577 5.6925 7.25577C5.75084 7.25577 5.80679 7.2326 5.84804 7.19136L6.50804 6.53136C6.54812 6.48987 6.57029 6.43429 6.56979 6.37661C6.56929 6.31893 6.54615 6.26375 6.50536 6.22296C6.46457 6.18217 6.40939 6.15903 6.35171 6.15853C6.29403 6.15803 6.23845 6.18021 6.19696 6.22028L6.19652 6.21764Z" fill="#231F20"/>
<path d="M5.764 5.16341C5.45272 5.16332 5.1484 5.25554 4.88953 5.42841C4.63066 5.60128 4.42886 5.84703 4.30966 6.13458C4.19045 6.42214 4.1592 6.73858 4.21984 7.0439C4.28048 7.34922 4.4303 7.6297 4.65035 7.84988C4.8704 8.07005 5.1508 8.22003 5.45608 8.28084C5.76137 8.34165 6.07783 8.31057 6.36545 8.19153C6.65308 8.07249 6.89894 7.87083 7.07195 7.61205C7.24496 7.35328 7.33736 7.04901 7.33744 6.73773C7.33698 6.32049 7.17108 5.92046 6.87613 5.62534C6.58118 5.33022 6.18124 5.16411 5.764 5.16341ZM5.764 7.87117C5.53971 7.87125 5.32042 7.80482 5.13389 7.68026C4.94735 7.5557 4.80195 7.37861 4.71608 7.17141C4.6302 6.9642 4.60771 6.73618 4.65145 6.51619C4.69519 6.29619 4.80319 6.09411 4.96179 5.93551C5.12039 5.77691 5.32247 5.66891 5.54246 5.62517C5.76245 5.58144 5.99048 5.60393 6.19768 5.6898C6.40489 5.77568 6.58197 5.92108 6.70653 6.10761C6.83109 6.29414 6.89753 6.51343 6.89744 6.73773C6.89698 7.03819 6.77741 7.32622 6.56495 7.53868C6.35249 7.75114 6.06447 7.8707 5.764 7.87117Z" fill="#231F20"/>
<path d="M12.188 10.78H8.151C8.09265 10.78 8.03669 10.8032 7.99544 10.8444C7.95418 10.8857 7.931 10.9417 7.931 11C7.931 11.0583 7.95418 11.1143 7.99544 11.1556C8.03669 11.1968 8.09265 11.22 8.151 11.22H12.188C12.2463 11.22 12.3023 11.1968 12.3436 11.1556C12.3848 11.1143 12.408 11.0583 12.408 11C12.408 10.9417 12.3848 10.8857 12.3436 10.8444C12.3023 10.8032 12.2463 10.78 12.188 10.78Z" fill="#231F20"/>
<path d="M6.19652 10.4799L5.69096 10.9859L5.49604 10.7906C5.47575 10.7696 5.45147 10.7528 5.42463 10.7413C5.39779 10.7297 5.36892 10.7237 5.33971 10.7234C5.3105 10.7232 5.28153 10.7287 5.25449 10.7398C5.22745 10.7508 5.20289 10.7672 5.18223 10.7878C5.16158 10.8085 5.14524 10.8331 5.13418 10.8601C5.12312 10.8871 5.11755 10.9161 5.11781 10.9453C5.11806 10.9745 5.12413 11.0034 5.13566 11.0302C5.14719 11.0571 5.16395 11.0813 5.18496 11.1016L5.53696 11.4536C5.57822 11.4949 5.63417 11.5181 5.6925 11.5181C5.75084 11.5181 5.80679 11.4949 5.84804 11.4536L6.50804 10.7936C6.54812 10.7522 6.57029 10.6966 6.56979 10.6389C6.56929 10.5812 6.54615 10.526 6.50536 10.4852C6.46457 10.4445 6.40939 10.4213 6.35171 10.4208C6.29403 10.4203 6.23845 10.4425 6.19696 10.4826L6.19652 10.4799Z" fill="#231F20"/>
<path d="M5.764 9.42656C5.45278 9.42647 5.14853 9.51868 4.88972 9.69152C4.63091 9.86436 4.42917 10.1101 4.31001 10.3976C4.19086 10.6851 4.15964 11.0014 4.2203 11.3067C4.28096 11.6119 4.43078 11.8923 4.65081 12.1124C4.87084 12.3325 5.1512 12.4824 5.45643 12.5432C5.76166 12.6039 6.07805 12.5728 6.36559 12.4537C6.65312 12.3346 6.89888 12.133 7.07179 11.8742C7.24471 11.6154 7.337 11.3112 7.337 11C7.33642 10.583 7.17052 10.1831 6.87566 9.88821C6.5808 9.59327 6.18105 9.42726 5.764 9.42656ZM5.764 12.1334C5.53981 12.1335 5.32062 12.0671 5.13417 11.9426C4.94772 11.8181 4.80238 11.6412 4.71652 11.4341C4.63067 11.227 4.60816 10.999 4.65184 10.7791C4.69553 10.5593 4.80344 10.3573 4.96194 10.1987C5.12044 10.0401 5.32239 9.93214 5.54227 9.88837C5.76215 9.8446 5.99007 9.86702 6.1972 9.9528C6.40434 10.0386 6.58138 10.1838 6.70595 10.3702C6.83051 10.5567 6.897 10.7758 6.897 11C6.89665 11.3004 6.77718 11.5884 6.56479 11.8009C6.3524 12.0134 6.06442 12.133 5.764 12.1334Z" fill="#231F20"/>
<path d="M9.87888 15.0427H8.151C8.09265 15.0427 8.03669 15.0659 7.99544 15.1072C7.95418 15.1484 7.931 15.2044 7.931 15.2627C7.931 15.3211 7.95418 15.377 7.99544 15.4183C8.03669 15.4595 8.09265 15.4827 8.151 15.4827H9.87888C9.93723 15.4827 9.99319 15.4595 10.0344 15.4183C10.0757 15.377 10.0989 15.3211 10.0989 15.2627C10.0989 15.2044 10.0757 15.1484 10.0344 15.1072C9.99319 15.0659 9.93723 15.0427 9.87888 15.0427Z" fill="#231F20"/>
<path d="M6.19652 14.7431L5.69096 15.2482L5.49604 15.0537C5.47575 15.0327 5.45147 15.0159 5.42463 15.0044C5.39779 14.9929 5.36892 14.9868 5.33971 14.9866C5.3105 14.9863 5.28153 14.9919 5.25449 15.0029C5.22745 15.014 5.20289 15.0303 5.18223 15.051C5.16158 15.0716 5.14524 15.0962 5.13418 15.1232C5.12312 15.1503 5.11755 15.1793 5.11781 15.2085C5.11806 15.2377 5.12413 15.2665 5.13566 15.2934C5.14719 15.3202 5.16395 15.3445 5.18496 15.3648L5.53696 15.7168C5.57822 15.758 5.63417 15.7812 5.6925 15.7812C5.75084 15.7812 5.80679 15.758 5.84804 15.7168L6.50804 15.0568C6.54812 15.0153 6.57029 14.9597 6.56979 14.902C6.56929 14.8444 6.54615 14.7892 6.50536 14.7484C6.46457 14.7076 6.40939 14.6845 6.35171 14.684C6.29403 14.6835 6.23845 14.7056 6.19696 14.7457L6.19652 14.7431Z" fill="#231F20"/>
<path d="M5.764 13.6888C5.4527 13.6888 5.14836 13.781 4.88948 13.9539C4.6306 14.1268 4.4288 14.3725 4.30961 14.6601C4.19042 14.9477 4.15919 15.2642 4.21987 15.5695C4.28055 15.8748 4.43041 16.1553 4.65051 16.3755C4.8706 16.5956 5.15104 16.7456 5.45635 16.8063C5.76167 16.8671 6.07814 16.836 6.36576 16.7168C6.65337 16.5977 6.89921 16.396 7.07217 16.1372C7.24513 15.8783 7.33744 15.574 7.33744 15.2627C7.33686 14.8456 7.17092 14.4456 6.87598 14.1506C6.58104 13.8556 6.18117 13.6895 5.764 13.6888ZM5.764 16.3966C5.53972 16.3967 5.32046 16.3303 5.13393 16.2057C4.94741 16.0812 4.80201 15.9041 4.71612 15.6969C4.63023 15.4898 4.60772 15.2618 4.65142 15.0418C4.69512 14.8218 4.80307 14.6197 4.96163 14.4611C5.12019 14.3025 5.32223 14.1944 5.54219 14.1507C5.76215 14.1069 5.99016 14.1293 6.19738 14.2151C6.40459 14.3009 6.58171 14.4463 6.70632 14.6327C6.83093 14.8192 6.89744 15.0384 6.89744 15.2627C6.89698 15.5632 6.77743 15.8513 6.56498 16.0638C6.35253 16.2764 6.06451 16.396 5.764 16.3966Z" fill="#231F20"/>
<path d="M14.1768 3.08V10.5459L13.361 11.3617V3.44168C13.361 3.38333 13.3379 3.32737 13.2966 3.28611C13.2553 3.24486 13.1994 3.22168 13.141 3.22168H11.3599C11.3811 3.12468 11.392 3.02572 11.3925 2.92644V2.42H13.5168C13.6918 2.42 13.8597 2.48953 13.9835 2.61331C14.1073 2.73708 14.1768 2.90496 14.1768 3.08Z" fill="#00A1D3"/>
<path d="M12.3433 14.6203L11.8026 14.0791L12.1458 13.2986L13.1239 14.2771L12.3433 14.6203Z" fill="#F7D2D0"/>
<path d="M11.6129 14.5112L11.9112 14.8104L11.3784 15.0445L11.6129 14.5112Z" fill="#00A1D3"/>
<path d="M10.9525 2.926C10.9521 3.18152 10.8503 3.42646 10.6695 3.60698C10.4886 3.7875 10.2435 3.88884 9.988 3.88872H6.60704C6.35186 3.88837 6.10724 3.78681 5.92684 3.60633C5.74644 3.42585 5.64499 3.18118 5.64476 2.926V2.42H10.9525V2.926Z" fill="#C6B9C4"/>
<path d="M18.4115 6.93353L12.4074 12.9377L13.4848 14.0151L19.4889 8.01096L18.4115 6.93353Z" fill="#FF8E5A"/>
</svg>
