<svg width="22" height="22" viewBox="0 0 22 22" fill="none" xmlns="http://www.w3.org/2000/svg">
<path d="M2.73023 20.1214C2.46211 19.8447 2.50164 9.07156 2.73023 8.77765C2.8875 8.57656 18.7645 8.57656 19.0807 8.77765C19.3729 8.96328 19.2938 19.9435 19.0807 20.1214C18.608 20.5124 3.06367 20.4652 2.73023 20.1214Z" fill="#191919"/>
<path d="M11.2381 21.0848H10.8522C8.7811 21.0848 6.82344 21.0547 5.33758 21.0091C2.54891 20.9232 2.45094 20.8218 2.2361 20.6009C2.02125 20.3801 1.84594 20.1953 1.85625 14.4547C1.85625 13.0204 1.87774 11.6566 1.90867 10.615C1.96797 8.63844 2.03672 8.5525 2.18883 8.3557C2.41313 8.06867 2.71219 8.05664 3.43664 8.02656C3.87664 8.00851 4.50227 7.99219 5.29547 7.97929C6.765 7.95523 8.73297 7.94148 10.8462 7.94148C12.9594 7.94148 14.9377 7.95523 16.4261 7.97929C19.1761 8.02398 19.2491 8.07211 19.4494 8.1993C19.7931 8.41672 19.8309 8.78883 19.8748 9.4832C19.9607 10.884 19.9702 13.7156 19.9495 15.7145C19.9014 20.3354 19.8052 20.4153 19.5198 20.6516C19.3102 20.8235 19.1709 20.9404 16.3943 21.0229C15.0141 21.0624 13.1948 21.0848 11.2381 21.0848ZM3.3275 19.5379C5.59883 19.763 16.2327 19.7665 18.4706 19.5439C18.5917 17.8054 18.6424 11.208 18.4972 9.40328C16.1623 9.28125 5.70625 9.28125 3.3318 9.40328C3.19602 11.2475 3.19258 17.8252 3.3275 19.5379Z" fill="#191919"/>
<path d="M2.73023 20.1214C2.46211 19.8447 2.50164 9.07157 2.73023 8.77766C2.8875 8.57657 18.7645 8.57657 19.0807 8.77766C19.3729 8.96328 19.2938 19.9435 19.0807 20.1214C18.608 20.5124 3.06367 20.4652 2.73023 20.1214Z" fill="#E83A2A"/>
<path d="M19.1821 10.6141C19.2457 10.5196 19.2629 7.93289 19.0962 7.86414C18.6149 7.65274 3.09376 7.66735 2.6993 7.90625C2.54977 7.99219 2.53774 10.511 2.60477 10.6176C2.6718 10.7241 19.1185 10.7087 19.1821 10.6141Z" fill="#191919"/>
<path d="M10.3443 11.3781C7.90624 11.3781 5.37882 11.3695 3.86718 11.3438C3.4607 11.3377 3.14531 11.3309 2.92874 11.324C2.5214 11.3102 2.22663 11.3008 2.02382 10.9802C1.92499 10.823 1.86484 10.7276 1.88202 9.43336C1.8889 8.88594 1.91382 8.16407 1.99288 7.83407C2.01357 7.72782 2.05572 7.62691 2.11675 7.53752C2.17777 7.44812 2.2564 7.37211 2.34781 7.31414C2.53945 7.19899 2.64515 7.13539 5.3496 7.07953C6.81054 7.04946 8.76734 7.03055 10.8677 7.02625C12.9362 7.02625 14.9024 7.03313 16.4012 7.05719C19.0755 7.0993 19.2139 7.15946 19.3729 7.22907C19.4771 7.27567 19.5693 7.3454 19.6426 7.43295C19.7158 7.5205 19.7682 7.62358 19.7957 7.73438C19.8232 7.82891 19.9083 8.11508 19.9151 9.39125C19.922 10.7422 19.8593 10.8376 19.7536 10.9948C19.5456 11.3051 19.3119 11.3111 18.6854 11.3266C18.3683 11.3343 17.9119 11.342 17.3207 11.348C16.2207 11.3601 14.7142 11.3687 12.9628 11.3738C12.1404 11.3773 11.2492 11.3781 10.3443 11.3781ZM3.25273 9.96188C5.77242 10.016 16.0007 10.0126 18.5367 9.95758C18.5444 9.51157 18.5367 8.89453 18.5144 8.48977C16.1562 8.36086 5.58593 8.38492 3.28624 8.525C3.26046 8.92289 3.24929 9.52531 3.25273 9.96188Z" fill="#191919"/>
<path d="M19.1821 10.6141C19.2457 10.5196 19.2629 7.93289 19.0962 7.86414C18.6149 7.65274 3.09376 7.66735 2.6993 7.90625C2.54977 7.99219 2.53774 10.511 2.60477 10.6176C2.6718 10.7241 19.1185 10.7087 19.1821 10.6141Z" fill="white"/>
<path d="M2.42773 10.7946C2.42773 10.7946 5.76984 7.66305 5.72343 7.5625C5.65554 7.41985 2.45781 7.43188 2.38562 7.52555C2.31343 7.61922 1.82187 11.0146 2.42773 10.7946Z" fill="#191919"/>
<path d="M19.0214 4.4318C19.0704 4.32867 18.7017 1.85797 18.529 1.81242C18.0202 1.67664 2.64086 3.91961 2.28336 4.21094C2.14844 4.32437 2.5068 6.81398 2.5893 6.90937C2.6718 7.00476 18.9733 4.53492 19.0214 4.4318Z" fill="#191919"/>
<path d="M2.62625 7.59687C2.52073 7.60354 2.41512 7.58532 2.31794 7.54367C2.22077 7.50202 2.13474 7.43812 2.0668 7.35711C1.94648 7.21875 1.87344 7.13281 1.69898 5.84805C1.62508 5.30578 1.54344 4.58734 1.57265 4.24961C1.57734 4.14139 1.60407 4.03526 1.65121 3.93773C1.69835 3.8402 1.7649 3.75333 1.8468 3.68242C2.01867 3.53976 2.11578 3.46156 4.78844 3.0164C6.22703 2.77664 8.16664 2.47672 10.2498 2.17078C12.2985 1.87 14.2476 1.59844 15.7386 1.40594C18.3941 1.06219 18.5384 1.10258 18.706 1.14812C18.8169 1.17902 18.9192 1.23479 19.0053 1.31118C19.0914 1.38757 19.1589 1.48258 19.2027 1.58898C19.3136 1.82789 19.4356 2.3564 19.5654 3.15992C19.7734 4.44898 19.7244 4.55469 19.6427 4.72656C19.4829 5.06344 19.2646 5.10211 18.6175 5.21555C18.2944 5.27226 17.826 5.35047 17.2253 5.44758C16.1012 5.6289 14.569 5.86867 12.7944 6.14023C9.69375 6.61719 5.69508 7.21015 3.75117 7.47055C3.40742 7.51695 3.14101 7.55047 2.95797 7.57109C2.84795 7.5858 2.73721 7.59441 2.62625 7.59687ZM2.95539 4.74117C2.98805 5.13906 3.06625 5.73375 3.13414 6.1643C5.63922 5.84375 15.7773 4.3132 18.2841 3.87922C18.2256 3.45812 18.1302 2.8918 18.0486 2.51711C15.7051 2.72594 5.2207 4.27109 2.95539 4.74117Z" fill="#191919"/>
<path d="M19.0214 4.4318C19.0704 4.32867 18.7017 1.85797 18.529 1.81242C18.0202 1.67664 2.64086 3.91961 2.28336 4.21094C2.14844 4.32437 2.5068 6.81398 2.5893 6.90937C2.6718 7.00476 18.9733 4.53492 19.0214 4.4318Z" fill="white"/>
<path d="M2.28337 4.21094C2.28337 4.21094 5.7518 6.64727 5.72087 6.75211C5.67532 6.90336 2.5111 7.36141 2.42516 7.27891C2.33923 7.19641 1.65087 4.08547 2.28337 4.21094Z" fill="#191919"/>
<path d="M5.55414 3.34641C5.53867 3.43235 9.31734 6.30008 9.50726 6.26829L12.7583 5.78532C12.9233 5.7604 8.89969 2.76118 8.70719 2.78954C8.51469 2.8179 5.56961 3.25962 5.55414 3.34641Z" fill="#191919"/>
<path d="M12.2487 2.35125C12.2332 2.43719 16.0119 5.30492 16.2018 5.27312L19.4528 4.79016C19.6178 4.76523 15.5942 1.76601 15.4017 1.79437C15.2092 1.82273 12.2641 2.26531 12.2487 2.35125Z" fill="#191919"/>
<path d="M6.06288 10.8084C6.03538 10.7224 9.34999 7.33391 9.54421 7.33391H12.8313C12.998 7.33391 9.46085 10.8917 9.26577 10.8917C9.0707 10.8917 6.09038 10.8917 6.06288 10.8084Z" fill="#191919"/>
<path d="M12.8313 10.8084C12.8038 10.7224 16.1184 7.33391 16.3127 7.33391C16.5069 7.33391 19.2655 7.38977 19.2655 7.55649C19.2655 7.61235 16.2293 10.8926 16.0342 10.8926C15.8391 10.8926 12.8588 10.8917 12.8313 10.8084Z" fill="#191919"/>
<path d="M11.1091 18.7249C9.80977 18.7249 8.51641 18.7146 7.56078 18.6974C5.82313 18.6656 5.76641 18.6287 5.665 18.5625C5.49828 18.4551 5.45532 18.2918 5.4218 17.6464C5.39258 17.0689 5.38399 16.1571 5.40117 15.3261C5.43297 13.7672 5.50516 13.7088 5.63664 13.6073C5.75438 13.5128 5.76383 13.5051 7.44133 13.4879C8.34883 13.4784 9.56657 13.4733 10.8694 13.4733C15.8804 13.4733 16.0162 13.5274 16.0884 13.5592C16.3307 13.6563 16.3651 13.897 16.396 14.5123C16.4244 15.0838 16.4304 16.0016 16.4106 16.8506C16.4012 17.2597 16.3866 17.6129 16.3685 17.8707C16.3402 18.2841 16.317 18.4869 16.1184 18.59C16.0282 18.627 15.8391 18.7249 11.1091 18.7249Z" fill="white"/>
<path d="M10.8694 13.8102C13.3616 13.8102 15.8632 13.8299 15.9612 13.8686C16.1416 13.9408 16.0935 18.2059 15.9612 18.2746C15.8288 18.3434 13.4948 18.382 11.11 18.382C8.56797 18.382 5.95805 18.3442 5.85149 18.2746C5.68563 18.1672 5.70969 13.9829 5.85149 13.8686C5.90047 13.8299 8.37891 13.8102 10.8694 13.8102ZM10.8694 13.1227C9.56485 13.1227 8.34625 13.1278 7.43703 13.1373C6.94633 13.1424 6.55961 13.1484 6.28719 13.1562C5.78703 13.1691 5.6186 13.1734 5.42008 13.3332C5.1468 13.5532 5.12446 13.8729 5.09696 14.2785C5.07891 14.5432 5.06516 14.9024 5.05657 15.3192C5.03938 16.1614 5.04797 17.0835 5.07805 17.6679C5.10641 18.2248 5.12703 18.6261 5.47766 18.853C5.66758 18.9759 5.71828 19.0085 7.55477 19.0429C8.51211 19.0609 9.80805 19.0704 11.11 19.0704C12.3664 19.0704 13.5309 19.0609 14.3902 19.0446C16.0359 19.012 16.1167 18.9698 16.2809 18.8865C16.659 18.6897 16.6865 18.2995 16.7148 17.8862C16.7329 17.6232 16.7475 17.2657 16.7578 16.8549C16.7776 15.9955 16.7716 15.0717 16.7423 14.4916C16.7312 14.2725 16.7174 14.1023 16.7002 13.976C16.6788 13.8188 16.6229 13.4002 16.219 13.2395C16.0738 13.182 16.0299 13.1639 14.3223 13.1467C13.402 13.1373 12.1739 13.1321 10.872 13.1321L10.8694 13.1227Z" fill="#191919"/>
<path d="M7.17578 14.9428C6.72461 14.9428 6.70312 15.6088 7.13281 15.6415C7.5625 15.6741 13.9545 15.6741 14.2553 15.6415C14.5561 15.6088 14.7065 14.997 14.2235 14.9652C13.7405 14.9334 7.73437 14.9428 7.17578 14.9428Z" fill="#191919"/>
<path d="M7.17578 16.3608C6.72461 16.3608 6.70312 17.0268 7.13281 17.0595C7.5625 17.0921 10.8608 17.0921 11.1616 17.0595C11.4623 17.0268 11.6127 16.4149 11.1298 16.3831C10.6468 16.3513 7.73437 16.3608 7.17578 16.3608Z" fill="#191919"/>
</svg>
